<svg width="52" height="55" viewBox="0 0 52 55" fill="none" xmlns="http://www.w3.org/2000/svg">
<path d="M31.6189 6.11111H11.31C10.5948 6.13114 9.916 6.44886 9.42105 6.99526C8.9261 7.54165 8.655 8.27256 8.66667 9.02917V45.9708C8.655 46.7274 8.9261 47.4583 9.42105 48.0047C9.916 48.5511 10.5948 48.8689 11.31 48.8889H40.69C41.4052 48.8689 42.084 48.5511 42.5789 48.0047C43.0739 47.4583 43.345 46.7274 43.3333 45.9708V18.2111L31.6189 6.11111ZM30.3333 19.8611V8.92222L40.8778 19.8611H30.3333Z" fill="#0B59A0"/>
<path d="M15.7585 36V27.2727H19.2017C19.8636 27.2727 20.4276 27.3991 20.8935 27.652C21.3594 27.902 21.7145 28.25 21.9588 28.696C22.206 29.1392 22.3295 29.6506 22.3295 30.2301C22.3295 30.8097 22.2045 31.321 21.9545 31.7642C21.7045 32.2074 21.3423 32.5526 20.8679 32.7997C20.3963 33.0469 19.8253 33.1705 19.1548 33.1705H16.9602V31.6918H18.8565C19.2116 31.6918 19.5043 31.6307 19.7344 31.5085C19.9673 31.3835 20.1406 31.2116 20.2543 30.9929C20.3707 30.7713 20.429 30.517 20.429 30.2301C20.429 29.9403 20.3707 29.6875 20.2543 29.4716C20.1406 29.2528 19.9673 29.0838 19.7344 28.9645C19.5014 28.8423 19.206 28.7812 18.848 28.7812H17.6037V36H15.7585Z" fill="white"/>
<path d="M26.0218 36H22.9281V27.2727H26.0474C26.9252 27.2727 27.6809 27.4474 28.3144 27.7969C28.9479 28.1435 29.4352 28.642 29.7761 29.2926C30.1198 29.9432 30.2917 30.7216 30.2917 31.6278C30.2917 32.5369 30.1198 33.3182 29.7761 33.9716C29.4352 34.625 28.9451 35.1264 28.3059 35.4759C27.6695 35.8253 26.9082 36 26.0218 36ZM24.7732 34.419H25.9451C26.4906 34.419 26.9494 34.3224 27.3215 34.1293C27.6965 33.9332 27.9778 33.6307 28.1653 33.2216C28.3556 32.8097 28.4508 32.2784 28.4508 31.6278C28.4508 30.983 28.3556 30.456 28.1653 30.0469C27.9778 29.6378 27.6979 29.3366 27.3258 29.1435C26.9536 28.9503 26.4948 28.8537 25.9494 28.8537H24.7732V34.419Z" fill="white"/>
<path d="M31.0585 36V27.2727H36.8369V28.794H32.9037V30.8736H36.4534V32.3949H32.9037V36H31.0585Z" fill="white"/>
</svg>
